<svg id="SvgjsSvg1001" width="288" height="288" xmlns="http://www.w3.org/2000/svg" version="1.1" xmlns:xlink="http://www.w3.org/1999/xlink" xmlns:svgjs="http://svgjs.com/svgjs"><defs id="SvgjsDefs1002"></defs><g id="SvgjsG1008" transform="matrix(0.9167,0,0,0.9167,11.939561082863804,11.90396683595182)"><!--?xml version="1.0" encoding="UTF-8"?--><svg xmlns="http://www.w3.org/2000/svg" xmlns:xlink="http://www.w3.org/1999/xlink" width="288" height="288" viewBox="0 0 58 59" version="1.1"><title>navigation 1</title><g id="Page-1" stroke="none" stroke-width="1" fill="none" fill-rule="evenodd"><g id="Artboard" transform="translate(-491.000000, -142.000000)" fill="#f48566" class="color000 svgShape"><g id="navigation-1" transform="translate(491.000000, 142.000000)"><path d="M28.952 49.81c-.61 0-1.219-.305-1.219-.915L13.105 22.381v-.305c-.61-1.524-.915-3.352-.915-5.18C12.19 7.751 19.81.132 28.952.132c9.143 0 16.762 7.62 16.762 16.762 0 1.829-.304 3.657-.914 5.486v.305L30.476 49.505c-.305 0-.914.305-1.524.305zm0-46.629a13.657 13.657 0 0 0-13.714 13.714c0 1.524.305 3.048.61 4.267l13.104 24.076 13.105-24.076c.305-1.22.61-2.743.61-4.267A13.657 13.657 0 0 0 28.952 3.181z" id="Shape"></path><path d="M28.952 24.21c-3.962 0-7.01-3.048-7.01-7.01 0-3.962 3.048-7.01 7.01-7.01 3.962 0 7.01 3.048 7.01 7.01 0 3.962-3.048 7.01-7.01 7.01zm0-10.972c-2.133 0-3.962 1.829-3.962 3.962s1.829 3.962 3.962 3.962c2.134 0 3.962-1.829 3.962-3.962s-1.828-3.962-3.962-3.962z" id="Shape"></path><path d="M56.381 58.343H1.524c-.61 0-.914-.305-1.22-.61C0 57.43 0 56.82 0 56.514l7.924-23.162c.305-.61.914-.914 1.524-.914h4.266c.915 0 1.524.61 1.524 1.524s-.61 1.524-1.524 1.524h-3.047L3.657 55.6h50.59l-7.009-20.114h-2.743c-.914 0-1.524-.61-1.524-1.524s.61-1.524 1.524-1.524h3.657c.61 0 1.22.305 1.524.914L57.6 56.514c.305.61 0 .915-.305 1.524-.305.61-.305.305-.914.305z" id="Shape"></path></g></g></g><metadata><rdf:rdf xmlns:rdf="http://www.w3.org/1999/02/22-rdf-syntax-ns#" xmlns:rdfs="http://www.w3.org/2000/01/rdf-schema#" xmlns:dc="http://purl.org/dc/elements/1.1/"><rdf:description about="https://iconscout.com/legal#licenses" dc:title="navigation" dc:description="navigation" dc:publisher="Iconscout" dc:date="2017-09-26" dc:format="image/svg+xml" dc:language="en"><dc:creator><rdf:bag><rdf:li>The Eyecons</rdf:li></rdf:bag></dc:creator></rdf:description></rdf:rdf></metadata></svg></g></svg>